<?xml version="1.0" encoding="UTF-8"?>
<!DOCTYPE svg PUBLIC "-//W3C//DTD SVG 1.1//EN" "http://www.w3.org/Graphics/SVG/1.1/DTD/svg11.dtd">
<!-- Creator: CorelDRAW -->
<svg xmlns="http://www.w3.org/2000/svg" xml:space="preserve" width="2048px" height="2048px" style="shape-rendering:geometricPrecision; text-rendering:geometricPrecision; image-rendering:optimizeQuality; fill-rule:evenodd; clip-rule:evenodd"
viewBox="0 0 2048 2048"
 xmlns:xlink="http://www.w3.org/1999/xlink">
 <defs>
  <style type="text/css">
   <![CDATA[
    .fil1 {fill:none}
    .fil0 {fill:#424242}
   ]]>
  </style>
 </defs>
 <g id="Layer_x0020_1">
  <metadata id="CorelCorpID_0Corel-Layer"/>
  <g id="_274746904">
   <path id="_274747024" class="fil0" d="M1370.76 255.999c109.075,0 205.941,53.2536 274.471,136.599 71.3339,86.7579 106.866,199.125 106.866,310.785 0,111.662 -35.5323,224.027 -106.866,310.785 -68.53,83.3469 -165.395,136.6 -274.471,136.6 -109.074,0 -205.941,-53.2548 -274.468,-136.6 -71.3351,-86.7591 -106.866,-199.123 -106.866,-310.785 0,-111.66 35.5311,-224.027 106.866,-310.785 68.5276,-83.3457 165.395,-136.599 274.468,-136.599zm157.54 232.752c-39.3095,-47.8075 -94.3867,-81.0331 -157.54,-81.0331 -63.1524,0 -118.23,33.2256 -157.539,81.0331 -49.0276,59.6304 -72.0768,138.139 -72.0768,214.632 0,76.4965 23.0492,155.002 72.078,214.634 39.3071,47.8087 94.3855,81.0331 157.538,81.0331 63.1536,0 118.231,-33.2244 157.54,-81.0331 49.0288,-59.6315 72.078,-138.137 72.078,-214.634 0,-76.4942 -23.0492,-155.002 -72.078,-214.632z"/>
   <path id="_274746376" class="fil0" d="M975.048 1658.32c57.8646,-49.0264 114.232,-103.999 166.949,-158.349 112.752,-116.243 220.266,-245.225 305.446,-383.118 76.3938,-123.669 144.3,-270.976 153.163,-417.961 2.5063,-41.5441 38.5099,-73.5768 80.0741,-71.1355 41.5866,2.4437 73.6879,38.524 71.1804,80.1225 -9.73702,161.535 -77.0268,320.268 -158.428,458.187 -91.7139,155.392 -209.978,300.531 -334.733,430.641 -58.4221,60.9272 -121.231,122.59 -185.746,177.255 -31.7835,26.9315 -79.8827,22.9122 -106.787,-8.8819 -26.8996,-31.7894 -22.8839,-79.8449 8.8819,-106.76z"/>
   <path id="_274746592" class="fil0" d="M677.243 1792c-109.075,0 -205.941,-53.2536 -274.471,-136.599 -71.3339,-86.7579 -106.866,-199.125 -106.866,-310.785 0,-111.662 35.5323,-224.027 106.866,-310.785 68.53,-83.3469 165.395,-136.6 274.471,-136.6 109.074,0 205.941,53.2548 274.468,136.6 71.3351,86.7591 106.866,199.123 106.866,310.785 0,111.66 -35.5311,224.027 -106.866,310.785 -68.5276,83.3457 -165.395,136.599 -274.468,136.599zm-157.54 -232.752c39.3095,47.8075 94.3867,81.0331 157.54,81.0331 63.1524,0 118.23,-33.2256 157.539,-81.0331 49.0276,-59.6304 72.0768,-138.139 72.0768,-214.632 0,-76.4965 -23.0492,-155.002 -72.078,-214.634 -39.3071,-47.8087 -94.3855,-81.0331 -157.538,-81.0331 -63.1536,0 -118.231,33.2244 -157.54,81.0331 -49.0288,59.6315 -72.078,138.137 -72.078,214.634 0,76.4942 23.0492,155.002 72.078,214.632z"/>
   <path id="_274746688" class="fil0" d="M1072.95 389.683c-57.8646,49.0264 -114.232,103.999 -166.949,158.349 -112.752,116.243 -220.266,245.225 -305.446,383.118 -76.3938,123.669 -144.3,270.976 -153.163,417.961 -2.5063,41.5441 -38.5099,73.5768 -80.0741,71.1355 -41.5866,-2.4437 -73.6879,-38.524 -71.1804,-80.1225 9.73702,-161.535 77.0268,-320.268 158.428,-458.187 91.7139,-155.392 209.978,-300.531 334.733,-430.641 58.4221,-60.9272 121.231,-122.59 185.746,-177.255 31.7835,-26.9315 79.8827,-22.9122 106.787,8.8819 26.8996,31.7894 22.8839,79.8449 -8.8819,106.76z"/>
  </g>
 </g>
 <rect class="fil1" width="2048" height="2048"/>
</svg>
